<mxfile host="app.diagrams.net" modified="2023-12-08T07:44:32.459Z" agent="Mozilla/5.0 (Windows NT 10.0; Win64; x64) AppleWebKit/537.36 (KHTML, like Gecko) Chrome/119.0.0.0 Safari/537.36" version="22.1.7" etag="6wLY2xPic1-bsHfG0aWj" type="github">
  <diagram name="第 1 页" id="xSxtkkk4UwBpvu_kSvG_">
    <mxGraphModel>
      <root>
        <mxCell id="0" />
        <mxCell id="1" parent="0" />
      </root>
    </mxGraphModel>
  </diagram>
</mxfile>
